<svg width="20" height="20" viewBox="0 0 20 20" fill="none" xmlns="http://www.w3.org/2000/svg">
<path d="M19.6076 9.61953C19.5787 9.55625 18.8943 8.03672 17.3826 6.525C15.36 4.50547 12.8107 3.4375 9.99823 3.4375C7.18573 3.4375 4.63651 4.50547 2.6162 6.525C1.10448 8.03672 0.420107 9.55625 0.388857 9.61953C0.335929 9.73953 0.308594 9.86924 0.308594 10.0004C0.308594 10.1315 0.335929 10.2613 0.388857 10.3813C0.417763 10.4453 1.10214 11.9641 2.61464 13.4758C4.63651 15.4953 7.18573 16.5625 9.99823 16.5625C12.8107 16.5625 15.3599 15.4953 17.3795 13.4758C18.892 11.9641 19.5764 10.4453 19.6053 10.3813C19.6586 10.2614 19.6863 10.1318 19.6867 10.0006C19.6871 9.86949 19.6602 9.73969 19.6076 9.61953ZM16.0092 12.1977C14.3318 13.8492 12.31 14.6875 9.99823 14.6875C7.68651 14.6875 5.66464 13.8492 3.98964 12.1969C3.33053 11.5447 2.76358 10.8056 2.30448 10C2.76371 9.19474 3.33066 8.45589 3.98964 7.80391C5.66542 6.15078 7.68651 5.3125 9.99823 5.3125C12.31 5.3125 14.331 6.15078 16.0068 7.80391C16.6659 8.45583 17.2328 9.19469 17.692 10C17.2328 10.8055 16.6659 11.5447 16.0068 12.1969L16.0092 12.1977ZM9.99823 6.5625C9.31836 6.5625 8.65375 6.76411 8.08846 7.14182C7.52317 7.51954 7.08257 8.0564 6.8224 8.68453C6.56222 9.31265 6.49415 10.0038 6.62678 10.6706C6.75942 11.3374 7.08681 11.9499 7.56755 12.4307C8.0483 12.9114 8.6608 13.2388 9.32761 13.3714C9.99442 13.5041 10.6856 13.436 11.3137 13.1758C11.9418 12.9157 12.4787 12.4751 12.8564 11.9098C13.2341 11.3445 13.4357 10.6799 13.4357 10C13.4347 9.08864 13.0722 8.21489 12.4278 7.57046C11.7833 6.92603 10.9096 6.56353 9.99823 6.5625ZM9.99823 11.5625C9.6892 11.5625 9.3871 11.4709 9.13015 11.2992C8.8732 11.1275 8.67293 10.8835 8.55467 10.5979C8.43641 10.3124 8.40547 9.99827 8.46575 9.69517C8.52604 9.39208 8.67486 9.11367 8.89338 8.89515C9.1119 8.67663 9.39031 8.52781 9.6934 8.46752C9.9965 8.40723 10.3107 8.43818 10.5962 8.55644C10.8817 8.6747 11.1257 8.87497 11.2974 9.13192C11.4691 9.38887 11.5607 9.69097 11.5607 10C11.5607 10.4144 11.3961 10.8118 11.1031 11.1049C10.8101 11.3979 10.4126 11.5625 9.99823 11.5625Z" fill="#797B80"/>
</svg>
