<svg width="20" height="17" viewBox="0 0 20 17" fill="none" xmlns="http://www.w3.org/2000/svg">
<path d="M17.645 2.22891C16.7378 1.32435 15.5095 0.81556 14.2284 0.813658C12.9472 0.811755 11.7174 1.3169 10.8075 2.21875L10.0013 2.96719L9.19502 2.21875C8.28541 1.31142 7.05262 0.802591 5.76785 0.804203C4.48308 0.805815 3.25157 1.31773 2.34424 2.22734C1.43691 3.13695 0.92808 4.36974 0.929691 5.65451C0.931303 6.93928 1.44322 8.17079 2.35283 9.07812L9.3333 16.1602C9.42053 16.2487 9.52451 16.3191 9.63919 16.3671C9.75387 16.4151 9.87695 16.4398 10.0013 16.4398C10.1256 16.4398 10.2487 16.4151 10.3633 16.3671C10.478 16.3191 10.582 16.2487 10.6692 16.1602L17.645 9.08281C18.095 8.633 18.452 8.09894 18.6955 7.51113C18.9391 6.92333 19.0645 6.2933 19.0645 5.65703C19.0645 5.02077 18.9391 4.39073 18.6955 3.80293C18.452 3.21512 18.095 2.68106 17.645 2.23125V2.22891ZM16.3169 7.75937L10.0013 14.1641L3.6833 7.75391C3.12846 7.19676 2.81731 6.44226 2.81812 5.65596C2.81894 4.86967 3.13165 4.11581 3.68765 3.55981C4.24364 3.00382 4.9975 2.6911 5.78379 2.69029C6.57009 2.68947 7.32459 3.00063 7.88174 3.55547C7.88955 3.56328 7.89736 3.57109 7.90596 3.57812L9.36221 4.93437C9.53574 5.09605 9.7641 5.18594 10.0013 5.18594C10.2384 5.18594 10.4668 5.09605 10.6403 4.93437L12.0966 3.57812C12.1052 3.57109 12.113 3.56328 12.1208 3.55547C12.3968 3.2801 12.7244 3.0618 13.0848 2.91303C13.4452 2.76426 13.8314 2.68793 14.2213 2.6884C14.6112 2.68887 14.9971 2.76614 15.3572 2.91578C15.7172 3.06542 16.0443 3.28451 16.3196 3.56055C16.595 3.83658 16.8133 4.16415 16.9621 4.52454C17.1108 4.88494 17.1872 5.27111 17.1867 5.66101C17.1862 6.05091 17.109 6.4369 16.9593 6.79693C16.8097 7.15697 16.5906 7.48401 16.3146 7.75937H16.3169Z" fill="#797B80"/>
</svg>
