<svg width="22" height="18" viewBox="0 0 22 18" fill="none" xmlns="http://www.w3.org/2000/svg">
<path d="M21.5005 5.27155C21.4629 6.57716 20.9261 7.81864 20.0005 8.7403L16.7427 12C16.2682 12.4771 15.7038 12.8553 15.0822 13.1128C14.4606 13.3702 13.794 13.5019 13.1212 13.5H13.1165C12.4321 13.4995 11.7548 13.3619 11.1246 13.0952C10.4943 12.8286 9.92388 12.4383 9.44697 11.9475C8.97007 11.4567 8.59636 10.8753 8.34793 10.2377C8.09949 9.60004 7.98137 8.91906 8.00054 8.23499C8.00613 8.03608 8.09051 7.84753 8.23512 7.71084C8.37973 7.57414 8.57272 7.50049 8.77163 7.50608C8.97054 7.51168 9.15909 7.59606 9.29578 7.74067C9.43248 7.88528 9.50613 8.07826 9.50054 8.27718C9.48688 8.76086 9.57031 9.24237 9.74591 9.69326C9.9215 10.1441 10.1857 10.5553 10.5229 10.9023C10.86 11.2494 11.2634 11.5253 11.709 11.7139C12.1546 11.9024 12.6335 11.9997 13.1174 12C13.5931 12.0012 14.0642 11.9081 14.5037 11.7261C14.9432 11.5441 15.3422 11.2768 15.6777 10.9397L18.9355 7.68186C19.6077 7.00125 19.9833 6.08234 19.9803 5.12578C19.9773 4.16921 19.596 3.25268 18.9196 2.57628C18.2432 1.89988 17.3266 1.51856 16.3701 1.51556C15.4135 1.51257 14.4946 1.88815 13.814 2.5603L12.7827 3.59155C12.6409 3.72627 12.4521 3.80026 12.2565 3.79776C12.061 3.79525 11.8741 3.71645 11.7358 3.57815C11.5975 3.43985 11.5187 3.25299 11.5162 3.05742C11.5137 2.86185 11.5877 2.67304 11.7224 2.53124L12.7537 1.49999C13.2294 1.02405 13.7943 0.646502 14.416 0.388915C15.0378 0.131329 15.7041 -0.00125122 16.3771 -0.00125122C17.0501 -0.00125122 17.7164 0.131329 18.3382 0.388915C18.9599 0.646502 19.5248 1.02405 20.0005 1.49999C20.4933 1.99401 20.8805 2.58315 21.1383 3.23154C21.3962 3.87993 21.5194 4.57402 21.5005 5.27155ZM9.21929 14.4056L8.18804 15.4369C7.85168 15.7755 7.45138 16.0438 7.01039 16.2263C6.56941 16.4088 6.09654 16.5019 5.61929 16.5C4.90332 16.4994 4.20359 16.2866 3.6085 15.8885C3.01342 15.4904 2.54968 14.9249 2.27589 14.2633C2.0021 13.6018 1.93054 12.8739 2.07026 12.1717C2.20997 11.4695 2.55469 10.8245 3.06085 10.3181L6.31304 7.0603C6.82527 6.54536 7.48051 6.19634 8.19365 6.05857C8.90679 5.9208 9.64488 6.00064 10.3121 6.28773C10.9792 6.57482 11.5447 7.05589 11.935 7.66846C12.3252 8.28103 12.5223 8.9968 12.5005 9.7228C12.4949 9.92171 12.5686 10.1147 12.7053 10.2593C12.842 10.4039 13.0305 10.4883 13.2294 10.4939C13.4284 10.4995 13.6213 10.4258 13.766 10.2891C13.9106 10.1524 13.9949 9.9639 14.0005 9.76499C14.0185 9.06855 13.8949 8.37571 13.637 7.72851C13.3792 7.08131 12.9925 6.49324 12.5005 5.99999C11.5398 5.03964 10.2369 4.50015 8.8785 4.50015C7.52007 4.50015 6.21724 5.03964 5.25647 5.99999L2.00054 9.2578C1.2845 9.97354 0.796706 10.8855 0.598795 11.8784C0.400883 12.8713 0.501738 13.9005 0.888614 14.8361C1.27549 15.7717 1.93102 16.5716 2.77237 17.1347C3.61372 17.6979 4.60312 17.999 5.61554 18C6.28854 18.0019 6.95524 17.8704 7.57705 17.6129C8.19886 17.3554 8.76341 16.9771 9.23804 16.5L10.2693 15.4687C10.3907 15.3258 10.4541 15.1425 10.447 14.9551C10.44 14.7677 10.3629 14.5897 10.2312 14.4563C10.0994 14.3229 9.92238 14.2437 9.73508 14.2343C9.54777 14.2249 9.36375 14.286 9.21929 14.4056Z" fill="#797B80"/>
</svg>
