<svg width="66" height="66" viewBox="0 0 66 66" fill="none" xmlns="http://www.w3.org/2000/svg">
<path d="M33 0.5C26.5721 0.5 20.2886 2.40609 14.944 5.97724C9.59938 9.54838 5.43378 14.6242 2.97393 20.5628C0.514082 26.5014 -0.129527 33.0361 1.12449 39.3404C2.37851 45.6448 5.47384 51.4358 10.019 55.981C14.5643 60.5262 20.3552 63.6215 26.6596 64.8755C32.964 66.1295 39.4986 65.4859 45.4372 63.0261C51.3758 60.5662 56.4516 56.4006 60.0228 51.056C63.5939 45.7114 65.5 39.4279 65.5 33C65.4909 24.3833 62.0639 16.122 55.9709 10.0291C49.878 3.93612 41.6168 0.509099 33 0.5ZM16.15 54.7188C17.9586 51.8903 20.45 49.5625 23.3948 47.9502C26.3395 46.3378 29.6428 45.4927 33 45.4927C36.3573 45.4927 39.6605 46.3378 42.6053 47.9502C45.55 49.5625 48.0415 51.8903 49.85 54.7188C45.0323 58.4656 39.1032 60.4998 33 60.4998C26.8968 60.4998 20.9677 58.4656 16.15 54.7188ZM23 30.5C23 28.5222 23.5865 26.5888 24.6853 24.9443C25.7841 23.2998 27.3459 22.0181 29.1732 21.2612C31.0004 20.5043 33.0111 20.3063 34.9509 20.6921C36.8907 21.078 38.6726 22.0304 40.0711 23.4289C41.4696 24.8275 42.422 26.6093 42.8079 28.5491C43.1937 30.4889 42.9957 32.4996 42.2388 34.3268C41.4819 36.1541 40.2002 37.7159 38.5557 38.8147C36.9112 39.9135 34.9778 40.5 33 40.5C30.3478 40.5 27.8043 39.4464 25.9289 37.5711C24.0536 35.6957 23 33.1522 23 30.5ZM53.55 51.2531C50.7618 47.2127 46.8412 44.0869 42.2813 42.2688C44.7307 40.3395 46.518 37.6949 47.3948 34.7028C48.2715 31.7107 48.1941 28.5197 47.1732 25.5736C46.1523 22.6275 44.2387 20.0728 41.6986 18.2647C39.1584 16.4565 36.118 15.4849 33 15.4849C29.8821 15.4849 26.8416 16.4565 24.3015 18.2647C21.7613 20.0728 19.8477 22.6275 18.8268 25.5736C17.806 28.5197 17.7285 31.7107 18.6052 34.7028C19.482 37.6949 21.2693 40.3395 23.7188 42.2688C19.1588 44.0869 15.2382 47.2127 12.45 51.2531C8.92679 47.2911 6.62399 42.3951 5.8189 37.1547C5.01382 31.9142 5.74078 26.5528 7.91225 21.7159C10.0837 16.8791 13.6071 12.7731 18.0582 9.8923C22.5092 7.01155 27.6981 5.47889 33 5.47889C38.3019 5.47889 43.4908 7.01155 47.9419 9.8923C52.3929 12.7731 55.9163 16.8791 58.0878 21.7159C60.2592 26.5528 60.9862 31.9142 60.1811 37.1547C59.376 42.3951 57.0732 47.2911 53.55 51.2531Z" fill="#485909"/>
</svg>
