<svg width="26" height="26" viewBox="0 0 26 26" fill="none" xmlns="http://www.w3.org/2000/svg">
<path d="M14.5 13C14.5 13.2967 14.412 13.5867 14.2472 13.8333C14.0824 14.08 13.8481 14.2723 13.574 14.3858C13.2999 14.4993 12.9983 14.529 12.7074 14.4712C12.4164 14.4133 12.1491 14.2704 11.9393 14.0607C11.7296 13.8509 11.5867 13.5836 11.5288 13.2926C11.4709 13.0017 11.5006 12.7001 11.6142 12.426C11.7277 12.1519 11.92 11.9176 12.1666 11.7528C12.4133 11.588 12.7033 11.5 13 11.5C13.3978 11.5 13.7794 11.658 14.0607 11.9393C14.342 12.2206 14.5 12.6022 14.5 13ZM7.5 11.5C7.20333 11.5 6.91332 11.588 6.66664 11.7528C6.41997 11.9176 6.22771 12.1519 6.11418 12.426C6.00065 12.7001 5.97094 13.0017 6.02882 13.2926C6.0867 13.5836 6.22956 13.8509 6.43934 14.0607C6.64912 14.2704 6.91639 14.4133 7.20736 14.4712C7.49833 14.529 7.79994 14.4993 8.07403 14.3858C8.34811 14.2723 8.58238 14.08 8.7472 13.8333C8.91203 13.5867 9 13.2967 9 13C9 12.6022 8.84196 12.2206 8.56066 11.9393C8.27936 11.658 7.89782 11.5 7.5 11.5ZM18.5 11.5C18.2033 11.5 17.9133 11.588 17.6666 11.7528C17.42 11.9176 17.2277 12.1519 17.1142 12.426C17.0007 12.7001 16.9709 13.0017 17.0288 13.2926C17.0867 13.5836 17.2296 13.8509 17.4393 14.0607C17.6491 14.2704 17.9164 14.4133 18.2074 14.4712C18.4983 14.529 18.7999 14.4993 19.074 14.3858C19.3481 14.2723 19.5824 14.08 19.7472 13.8333C19.912 13.5867 20 13.2967 20 13C20 12.6022 19.842 12.2206 19.5607 11.9393C19.2794 11.658 18.8978 11.5 18.5 11.5ZM26 13C26.0005 15.2444 25.4199 17.4507 24.3147 19.4042C23.2095 21.3576 21.6174 22.9917 19.6934 24.1473C17.7693 25.3029 15.5788 25.9406 13.3352 25.9985C11.0915 26.0564 8.87107 25.5324 6.89 24.4775L2.63375 25.8962C2.28136 26.0138 1.9032 26.0308 1.54166 25.9455C1.18012 25.8602 0.849484 25.6758 0.586814 25.4132C0.324144 25.1505 0.139818 24.8199 0.0544969 24.4583C-0.0308244 24.0968 -0.0137696 23.7186 0.10375 23.3662L1.5225 19.11C0.595185 17.3665 0.0772463 15.4347 0.00799667 13.4612C-0.061253 11.4877 0.320007 9.52433 1.12284 7.72016C1.92567 5.91599 3.12897 4.31843 4.6414 3.04873C6.15383 1.77904 7.93564 0.870589 9.85158 0.392337C11.7675 -0.0859153 13.7672 -0.121399 15.699 0.288579C17.6307 0.698556 19.4436 1.54322 21.0001 2.75846C22.5566 3.97369 23.8158 5.52756 24.6822 7.30211C25.5485 9.07666 25.9992 11.0253 26 13ZM24 13C23.9995 11.3126 23.6109 9.64803 22.8641 8.13492C22.1174 6.62182 21.0325 5.30079 19.6935 4.27403C18.3545 3.24728 16.7973 2.54233 15.1422 2.21373C13.4872 1.88512 11.7787 1.94167 10.149 2.37899C8.51935 2.81631 7.01212 3.62269 5.74394 4.73573C4.47577 5.84878 3.48065 7.23865 2.83558 8.79782C2.1905 10.357 1.91277 12.0437 2.02387 13.7274C2.13496 15.411 2.63191 17.0466 3.47625 18.5075C3.54712 18.6301 3.59112 18.7664 3.60534 18.9074C3.61956 19.0483 3.60368 19.1907 3.55875 19.325L2 24L6.675 22.4412C6.77683 22.4065 6.88367 22.3888 6.99125 22.3887C7.16688 22.3891 7.33933 22.4356 7.49125 22.5237C9.1635 23.4913 11.0611 24.0013 12.9931 24.0025C14.925 24.0037 16.8232 23.4961 18.4967 22.5307C20.1702 21.5653 21.5599 20.1762 22.526 18.5031C23.492 16.83 24.0004 14.932 24 13Z" fill="#013138"/>
</svg>
