<svg width="26" height="22" viewBox="0 0 26 22" fill="none" xmlns="http://www.w3.org/2000/svg">
<path d="M24 0H2C1.46957 0 0.960859 0.210714 0.585786 0.585786C0.210714 0.960859 0 1.46957 0 2V20C0 20.5304 0.210714 21.0391 0.585786 21.4142C0.960859 21.7893 1.46957 22 2 22H3.67375C3.86301 22.0001 4.0484 21.9464 4.20838 21.8453C4.36836 21.7442 4.49636 21.5997 4.5775 21.4287C5.06377 20.4021 5.83151 19.5346 6.79143 18.9271C7.75135 18.3196 8.86401 17.9971 10 17.9971C11.136 17.9971 12.2486 18.3196 13.2086 18.9271C14.1685 19.5346 14.9362 20.4021 15.4225 21.4287C15.5036 21.5997 15.6316 21.7442 15.7916 21.8453C15.9516 21.9464 16.137 22.0001 16.3263 22H24C24.5304 22 25.0391 21.7893 25.4142 21.4142C25.7893 21.0391 26 20.5304 26 20V2C26 1.46957 25.7893 0.960859 25.4142 0.585786C25.0391 0.210714 24.5304 0 24 0ZM7 13C7 12.4067 7.17595 11.8266 7.50559 11.3333C7.83524 10.8399 8.30377 10.4554 8.85195 10.2284C9.40013 10.0013 10.0033 9.94189 10.5853 10.0576C11.1672 10.1734 11.7018 10.4591 12.1213 10.8787C12.5409 11.2982 12.8266 11.8328 12.9424 12.4147C13.0581 12.9967 12.9987 13.5999 12.7716 14.1481C12.5446 14.6962 12.1601 15.1648 11.6667 15.4944C11.1734 15.8241 10.5933 16 10 16C9.20435 16 8.44129 15.6839 7.87868 15.1213C7.31607 14.5587 7 13.7956 7 13ZM24 20H16.9287C16.0937 18.5643 14.8349 17.4221 13.325 16.73C14.082 16.056 14.6162 15.1678 14.857 14.1832C15.0977 13.1986 15.0335 12.1642 14.6729 11.2169C14.3122 10.2696 13.6723 9.45434 12.8377 8.87908C12.0032 8.30383 11.0136 7.99578 10 7.99578C8.98642 7.99578 7.99678 8.30383 7.16226 8.87908C6.32774 9.45434 5.68776 10.2696 5.32715 11.2169C4.96654 12.1642 4.90234 13.1986 5.14305 14.1832C5.38376 15.1678 5.91802 16.056 6.675 16.73C5.16513 17.4221 3.90633 18.5643 3.07125 20H2V2H24V20ZM4 7V5C4 4.73478 4.10536 4.48043 4.29289 4.29289C4.48043 4.10536 4.73478 4 5 4H21C21.2652 4 21.5196 4.10536 21.7071 4.29289C21.8946 4.48043 22 4.73478 22 5V17C22 17.2652 21.8946 17.5196 21.7071 17.7071C21.5196 17.8946 21.2652 18 21 18H19C18.7348 18 18.4804 17.8946 18.2929 17.7071C18.1054 17.5196 18 17.2652 18 17C18 16.7348 18.1054 16.4804 18.2929 16.2929C18.4804 16.1054 18.7348 16 19 16H20V6H6V7C6 7.26522 5.89464 7.51957 5.70711 7.70711C5.51957 7.89464 5.26522 8 5 8C4.73478 8 4.48043 7.89464 4.29289 7.70711C4.10536 7.51957 4 7.26522 4 7Z" fill="#485909"/>
</svg>
