<svg width="25" height="24" viewBox="0 0 25 24" fill="none" xmlns="http://www.w3.org/2000/svg">
<path d="M14 6.00001V11.4338L18.515 14.1425C18.7424 14.2791 18.9063 14.5004 18.9705 14.7578C19.0347 15.0152 18.9941 15.2876 18.8575 15.515C18.7209 15.7424 18.4996 15.9063 18.2422 15.9705C17.9848 16.0347 17.7124 15.9941 17.485 15.8575L12.485 12.8575C12.337 12.7686 12.2146 12.6429 12.1296 12.4926C12.0446 12.3424 11.9999 12.1726 12 12V6.00001C12 5.73479 12.1054 5.48044 12.2929 5.2929C12.4804 5.10536 12.7348 5.00001 13 5.00001C13.2652 5.00001 13.5196 5.10536 13.7071 5.2929C13.8946 5.48044 14 5.73479 14 6.00001ZM13 6.49646e-06C11.4225 -0.00392294 9.85987 0.305049 8.40257 0.90904C6.94527 1.51303 5.62222 2.40005 4.51 3.51876C3.60125 4.43876 2.79375 5.32376 2 6.25001V4.00001C2 3.73479 1.89464 3.48044 1.70711 3.2929C1.51957 3.10536 1.26522 3.00001 1 3.00001C0.734784 3.00001 0.48043 3.10536 0.292893 3.2929C0.105357 3.48044 0 3.73479 0 4.00001V9.00001C0 9.26522 0.105357 9.51958 0.292893 9.70711C0.48043 9.89465 0.734784 10 1 10H6C6.26522 10 6.51957 9.89465 6.70711 9.70711C6.89464 9.51958 7 9.26522 7 9.00001C7 8.73479 6.89464 8.48044 6.70711 8.2929C6.51957 8.10536 6.26522 8.00001 6 8.00001H3.125C4.01875 6.94751 4.90875 5.95626 5.92375 4.92876C7.31357 3.53895 9.08213 2.58952 11.0085 2.1991C12.9348 1.80869 14.9335 1.9946 16.7547 2.73361C18.576 3.47262 20.1391 4.73196 21.2487 6.35427C22.3584 7.97657 22.9653 9.88991 22.9938 11.8552C23.0222 13.8205 22.4708 15.7506 21.4086 17.4043C20.3463 19.058 18.8203 20.362 17.0212 21.1534C15.2221 21.9448 13.2296 22.1885 11.2928 21.8539C9.35598 21.5194 7.56069 20.6215 6.13125 19.2725C6.03571 19.1822 5.92333 19.1116 5.80052 19.0648C5.6777 19.0179 5.54686 18.9957 5.41547 18.9994C5.28407 19.0032 5.15469 19.0327 5.03472 19.0864C4.91475 19.1402 4.80653 19.217 4.71625 19.3125C4.62597 19.408 4.55538 19.5204 4.50853 19.6432C4.46168 19.7661 4.43948 19.8969 4.44319 20.0283C4.44691 20.1597 4.47647 20.2891 4.53018 20.409C4.58389 20.529 4.66071 20.6372 4.75625 20.7275C6.18056 22.0716 7.91219 23.0467 9.8 23.5676C11.6878 24.0886 13.6744 24.1396 15.5865 23.7162C17.4986 23.2928 19.278 22.4079 20.7694 21.1387C22.2608 19.8695 23.4189 18.2545 24.1427 16.4348C24.8664 14.615 25.1338 12.6458 24.9215 10.699C24.7091 8.75215 24.0236 6.88687 22.9246 5.26592C21.8256 3.64498 20.3466 2.31763 18.6166 1.39974C16.8867 0.481837 14.9584 0.00128116 13 6.49646e-06Z" fill="#692532"/>
</svg>
