<svg width="24" height="25" viewBox="0 0 24 25" fill="none" xmlns="http://www.w3.org/2000/svg">
<path d="M23.9562 21.3188L19.8075 1.59375C19.7538 1.3358 19.6497 1.091 19.5012 0.873403C19.3526 0.655806 19.1626 0.469705 18.9419 0.32579C18.7212 0.181876 18.4742 0.0829853 18.2152 0.0347986C17.9562 -0.0133881 17.6902 -0.00992073 17.4325 0.0450015L11.5812 1.3025C11.0637 1.41583 10.6118 1.72892 10.3239 2.17368C10.036 2.61844 9.93528 3.1589 10.0437 3.6775L14.1925 23.4025C14.285 23.8525 14.5295 24.257 14.8851 24.5479C15.2407 24.8389 15.6856 24.9985 16.145 25C16.287 24.9998 16.4286 24.9847 16.5675 24.955L22.4188 23.6975C22.9369 23.5839 23.3893 23.2702 23.6772 22.8247C23.9652 22.3791 24.0655 21.8379 23.9562 21.3188ZM12 3.26875C12 3.26125 12 3.2575 12 3.2575L17.85 2.0075L18.2663 3.99125L12.4163 5.25L12 3.26875ZM12.8275 7.2025L18.68 5.94625L19.0975 7.93375L13.25 9.19125L12.8275 7.2025ZM13.6575 11.1488L19.51 9.89125L21.1725 17.7963L15.32 19.0538L13.6575 11.1488ZM22 21.7425L16.15 22.9925L15.7337 21.0088L21.5837 19.75L22 21.7313C22 21.7388 22 21.7425 22 21.7425ZM8 1H2C1.46957 1 0.960859 1.21072 0.585786 1.58579C0.210714 1.96086 0 2.46957 0 3V23C0 23.5304 0.210714 24.0391 0.585786 24.4142C0.960859 24.7893 1.46957 25 2 25H8C8.53043 25 9.03914 24.7893 9.41421 24.4142C9.78929 24.0391 10 23.5304 10 23V3C10 2.46957 9.78929 1.96086 9.41421 1.58579C9.03914 1.21072 8.53043 1 8 1ZM2 3H8V5H2V3ZM2 7H8V19H2V7ZM8 23H2V21H8V23Z" fill="#734E06"/>
</svg>
