<svg width="56" height="66" viewBox="0 0 56 66" fill="none" xmlns="http://www.w3.org/2000/svg">
<path d="M54.7688 13.7312L42.2688 1.23125C42.0364 0.999165 41.7606 0.81513 41.4571 0.68966C41.1536 0.56419 40.8284 0.499743 40.5 0.500001H15.5C14.1739 0.500001 12.9021 1.02678 11.9645 1.96447C11.0268 2.90215 10.5 4.17392 10.5 5.5V10.5H5.5C4.17392 10.5 2.90215 11.0268 1.96447 11.9645C1.02678 12.9021 0.5 14.1739 0.5 15.5V60.5C0.5 61.8261 1.02678 63.0979 1.96447 64.0355C2.90215 64.9732 4.17392 65.5 5.5 65.5H40.5C41.8261 65.5 43.0979 64.9732 44.0355 64.0355C44.9732 63.0979 45.5 61.8261 45.5 60.5V55.5H50.5C51.8261 55.5 53.0979 54.9732 54.0355 54.0355C54.9732 53.0979 55.5 51.8261 55.5 50.5V15.5C55.5003 15.1716 55.4358 14.8464 55.3103 14.5429C55.1849 14.2394 55.0008 13.9636 54.7688 13.7312ZM40.5 60.5H5.5V15.5H29.4656L40.5 26.5344V52.95C40.5 52.9688 40.5 52.9844 40.5 53C40.5 53.0156 40.5 53.0312 40.5 53.05V60.5ZM50.5 50.5H45.5V25.5C45.5003 25.1716 45.4358 24.8464 45.3103 24.5429C45.1849 24.2394 45.0008 23.9636 44.7688 23.7312L32.2688 11.2313C32.0364 10.9992 31.7606 10.8151 31.4571 10.6897C31.1536 10.5642 30.8284 10.4997 30.5 10.5H15.5V5.5H39.4656L50.5 16.5344V50.5ZM33 40.5C33 41.163 32.7366 41.7989 32.2678 42.2678C31.7989 42.7366 31.163 43 30.5 43H15.5C14.837 43 14.2011 42.7366 13.7322 42.2678C13.2634 41.7989 13 41.163 13 40.5C13 39.837 13.2634 39.2011 13.7322 38.7322C14.2011 38.2634 14.837 38 15.5 38H30.5C31.163 38 31.7989 38.2634 32.2678 38.7322C32.7366 39.2011 33 39.837 33 40.5ZM33 50.5C33 51.163 32.7366 51.7989 32.2678 52.2678C31.7989 52.7366 31.163 53 30.5 53H15.5C14.837 53 14.2011 52.7366 13.7322 52.2678C13.2634 51.7989 13 51.163 13 50.5C13 49.837 13.2634 49.2011 13.7322 48.7322C14.2011 48.2634 14.837 48 15.5 48H30.5C31.163 48 31.7989 48.2634 32.2678 48.7322C32.7366 49.2011 33 49.837 33 50.5Z" fill="#47484B"/>
</svg>
