<svg width="20" height="18" viewBox="0 0 20 18" fill="none" xmlns="http://www.w3.org/2000/svg">
<path d="M3.99807 6.84375V0.75C3.99807 0.551088 3.91905 0.360322 3.7784 0.21967C3.63775 0.0790178 3.44698 0 3.24807 0C3.04916 0 2.85839 0.0790178 2.71774 0.21967C2.57709 0.360322 2.49807 0.551088 2.49807 0.75V6.84375C1.85276 7.00898 1.28079 7.38428 0.87234 7.91048C0.463889 8.43669 0.242187 9.08387 0.242188 9.75C0.242187 10.4161 0.463889 11.0633 0.87234 11.5895C1.28079 12.1157 1.85276 12.491 2.49807 12.6562V17.25C2.49807 17.4489 2.57709 17.6397 2.71774 17.7803C2.85839 17.921 3.04916 18 3.24807 18C3.44698 18 3.63775 17.921 3.7784 17.7803C3.91905 17.6397 3.99807 17.4489 3.99807 17.25V12.6562C4.64338 12.491 5.21535 12.1157 5.6238 11.5895C6.03225 11.0633 6.25395 10.4161 6.25395 9.75C6.25395 9.08387 6.03225 8.43669 5.6238 7.91048C5.21535 7.38428 4.64338 7.00898 3.99807 6.84375ZM3.24807 11.25C2.9514 11.25 2.66139 11.162 2.41471 10.9972C2.16804 10.8324 1.97578 10.5981 1.86225 10.324C1.74872 10.0499 1.71901 9.74834 1.77689 9.45737C1.83477 9.16639 1.97763 8.89912 2.18741 8.68934C2.39719 8.47956 2.66446 8.3367 2.95543 8.27882C3.24641 8.22094 3.54801 8.25065 3.8221 8.36418C4.09618 8.47771 4.33045 8.66997 4.49527 8.91665C4.6601 9.16332 4.74807 9.45333 4.74807 9.75C4.74807 10.1478 4.59003 10.5294 4.30873 10.8107C4.02743 11.092 3.64589 11.25 3.24807 11.25ZM10.7481 2.34375V0.75C10.7481 0.551088 10.6691 0.360322 10.5284 0.21967C10.3877 0.0790178 10.197 0 9.99807 0C9.79916 0 9.60839 0.0790178 9.46774 0.21967C9.32709 0.360322 9.24807 0.551088 9.24807 0.75V2.34375C8.60276 2.50898 8.03079 2.88428 7.62234 3.41048C7.21389 3.93669 6.99219 4.58387 6.99219 5.25C6.99219 5.91613 7.21389 6.56331 7.62234 7.08952C8.03079 7.61572 8.60276 7.99102 9.24807 8.15625V17.25C9.24807 17.4489 9.32709 17.6397 9.46774 17.7803C9.60839 17.921 9.79916 18 9.99807 18C10.197 18 10.3877 17.921 10.5284 17.7803C10.6691 17.6397 10.7481 17.4489 10.7481 17.25V8.15625C11.3934 7.99102 11.9653 7.61572 12.3738 7.08952C12.7823 6.56331 13.004 5.91613 13.004 5.25C13.004 4.58387 12.7823 3.93669 12.3738 3.41048C11.9653 2.88428 11.3934 2.50898 10.7481 2.34375ZM9.99807 6.75C9.7014 6.75 9.41139 6.66203 9.16471 6.4972C8.91804 6.33238 8.72578 6.09811 8.61225 5.82403C8.49872 5.54994 8.46901 5.24834 8.52689 4.95736C8.58477 4.66639 8.72763 4.39912 8.93741 4.18934C9.14719 3.97956 9.41446 3.8367 9.70543 3.77882C9.99641 3.72094 10.298 3.75065 10.5721 3.86418C10.8462 3.97771 11.0805 4.16997 11.2453 4.41665C11.4101 4.66332 11.4981 4.95333 11.4981 5.25C11.4981 5.64782 11.34 6.02936 11.0587 6.31066C10.7774 6.59196 10.3959 6.75 9.99807 6.75ZM19.7481 12.75C19.7474 12.0849 19.5262 11.4388 19.1191 10.9129C18.7119 10.387 18.1418 10.011 17.4981 9.84375V0.75C17.4981 0.551088 17.4191 0.360322 17.2784 0.21967C17.1377 0.0790178 16.947 0 16.7481 0C16.5492 0 16.3584 0.0790178 16.2177 0.21967C16.0771 0.360322 15.9981 0.551088 15.9981 0.75V9.84375C15.3528 10.009 14.7808 10.3843 14.3723 10.9105C13.9639 11.4367 13.7422 12.0839 13.7422 12.75C13.7422 13.4161 13.9639 14.0633 14.3723 14.5895C14.7808 15.1157 15.3528 15.491 15.9981 15.6562V17.25C15.9981 17.4489 16.0771 17.6397 16.2177 17.7803C16.3584 17.921 16.5492 18 16.7481 18C16.947 18 17.1377 17.921 17.2784 17.7803C17.4191 17.6397 17.4981 17.4489 17.4981 17.25V15.6562C18.1418 15.489 18.7119 15.113 19.1191 14.5871C19.5262 14.0612 19.7474 13.4151 19.7481 12.75ZM16.7481 14.25C16.4514 14.25 16.1614 14.162 15.9147 13.9972C15.668 13.8324 15.4758 13.5981 15.3623 13.324C15.2487 13.0499 15.219 12.7483 15.2769 12.4574C15.3348 12.1664 15.4776 11.8991 15.6874 11.6893C15.8972 11.4796 16.1645 11.3367 16.4554 11.2788C16.7464 11.2209 17.048 11.2506 17.3221 11.3642C17.5962 11.4777 17.8305 11.67 17.9953 11.9166C18.1601 12.1633 18.2481 12.4533 18.2481 12.75C18.2481 13.1478 18.09 13.5294 17.8087 13.8107C17.5274 14.092 17.1459 14.25 16.7481 14.25Z" fill="#FFAD0D"/>
</svg>
