<svg width="66" height="55" viewBox="0 0 66 55" fill="none" xmlns="http://www.w3.org/2000/svg">
<path d="M60.5 9.99999H34.0344L25.5 1.46562C25.0374 0.999306 24.4867 0.629599 23.8799 0.377992C23.2732 0.126385 22.6225 -0.00210376 21.9656 -5.22086e-06H5.5C4.17392 -5.22086e-06 2.90215 0.526779 1.96447 1.46446C1.02678 2.40214 0.5 3.67391 0.5 4.99999V50.1937C0.501654 51.4679 1.00856 52.6895 1.90954 53.5904C2.81053 54.4914 4.03206 54.9983 5.30625 55H60.7781C62.0299 54.9983 63.23 54.5003 64.1152 53.6152C65.0003 52.73 65.4983 51.5299 65.5 50.2781V15C65.5 13.6739 64.9732 12.4021 64.0355 11.4645C63.0979 10.5268 61.8261 9.99999 60.5 9.99999ZM5.5 4.99999H21.9656L26.9656 9.99999H5.5V4.99999ZM60.5 50H5.5V15H60.5V50Z" fill="#FFAD0D"/>
</svg>
