<svg width="36" height="36" viewBox="0 0 36 36" fill="none" xmlns="http://www.w3.org/2000/svg">
<path d="M28 0.125C32.3492 0.125 35.875 3.65076 35.875 8V28C35.875 32.3492 32.3492 35.875 28 35.875H0.125V0.125H28Z" fill="#FFF3DB"/>
<path d="M28 0.125C32.3492 0.125 35.875 3.65076 35.875 8V28C35.875 32.3492 32.3492 35.875 28 35.875H0.125V0.125H28Z" stroke="#FFAD0D" stroke-width="0.25"/>
<path d="M24.75 9.75H11.25C10.8522 9.75 10.4706 9.90804 10.1893 10.1893C9.90804 10.4706 9.75 10.8522 9.75 11.25V24.75C9.75 25.1478 9.90804 25.5294 10.1893 25.8107C10.4706 26.092 10.8522 26.25 11.25 26.25H24.75C25.1478 26.25 25.5294 26.092 25.8107 25.8107C26.092 25.5294 26.25 25.1478 26.25 24.75V11.25C26.25 10.8522 26.092 10.4706 25.8107 10.1893C25.5294 9.90804 25.1478 9.75 24.75 9.75ZM24.75 17.25H18.75V11.25H24.75V17.25ZM17.25 11.25V17.25H11.25V11.25H17.25ZM11.25 18.75H17.25V24.75H11.25V18.75ZM24.75 24.75H18.75V18.75H24.75V24.75Z" fill="#FFAD0D"/>
</svg>
