<svg width="20" height="20" viewBox="0 0 20 20" fill="none" xmlns="http://www.w3.org/2000/svg">
<path d="M19.5318 18.4694L14.8378 13.7762C16.1983 12.1428 16.8767 10.0478 16.7319 7.92694C16.5871 5.80607 15.6302 3.82268 14.0603 2.38935C12.4904 0.95602 10.4284 0.183113 8.3031 0.231413C6.17785 0.279713 4.15303 1.1455 2.64986 2.64867C1.14669 4.15184 0.280903 6.17666 0.232603 8.30191C0.184304 10.4272 0.95721 12.4892 2.39054 14.0591C3.82387 15.629 5.80726 16.5859 7.92813 16.7307C10.049 16.8755 12.144 16.1971 13.7774 14.8366L18.4706 19.5306C18.5402 19.6003 18.623 19.6556 18.714 19.6933C18.8051 19.731 18.9026 19.7504 19.0012 19.7504C19.0997 19.7504 19.1973 19.731 19.2884 19.6933C19.3794 19.6556 19.4621 19.6003 19.5318 19.5306C19.6015 19.4609 19.6568 19.3782 19.6945 19.2872C19.7322 19.1961 19.7516 19.0985 19.7516 19C19.7516 18.9015 19.7322 18.8039 19.6945 18.7128C19.6568 18.6218 19.6015 18.5391 19.5318 18.4694ZM1.75119 8.5C1.75119 7.16498 2.14707 5.85993 2.88877 4.7499C3.63047 3.63987 4.68468 2.7747 5.91808 2.26381C7.15148 1.75292 8.50868 1.61925 9.81805 1.8797C11.1274 2.14015 12.3302 2.78302 13.2742 3.72703C14.2182 4.67103 14.861 5.87377 15.1215 7.18314C15.3819 8.49251 15.2483 9.84971 14.7374 11.0831C14.2265 12.3165 13.3613 13.3707 12.2513 14.1124C11.1413 14.8541 9.83621 15.25 8.50119 15.25C6.71159 15.248 4.99585 14.5362 3.73041 13.2708C2.46497 12.0053 1.75318 10.2896 1.75119 8.5Z" fill="#FFAD0D"/>
</svg>
